<?xml version="1.0" standalone="no"?><!DOCTYPE svg PUBLIC "-//W3C//DTD SVG 1.1//EN" "http://www.w3.org/Graphics/SVG/1.1/DTD/svg11.dtd"><svg t="1704180146609" class="icon" viewBox="0 0 1024 1024" version="1.1" xmlns="http://www.w3.org/2000/svg" p-id="6358" xmlns:xlink="http://www.w3.org/1999/xlink" width="19" height="19"><path d="M237.870545 679.842909c3.188364 0 6.446545 0 9.867637-0.395636 43.031273-3.304727 133.888-22.225455 135.68-22.714182a68.375273 68.375273 0 0 0 60.206545-71.470546l0.395637-147.479272c27.392-8.145455 67.979636-32.093091 67.979636-78.266182V139.636364h-46.545455v219.880727a34.048 34.048 0 0 1-21.317818 27.927273l0.232728-88.017455a59.461818 59.461818 0 0 0-27.55491-51.013818 84.573091 84.573091 0 0 0-71.377454 1.652364l-3.514182 2.071272C196.561455 354.816 167.563636 544.372364 168.773818 602.763636a82.944 82.944 0 0 0 21.829818 61.370182 67.211636 67.211636 0 0 0 47.266909 15.709091z m129.000728-388.305454A39.703273 39.703273 0 0 1 393.309091 288.581818a17.314909 17.314909 0 0 1 4.654545 12.381091l-0.232727 85.666909a433.245091 433.245091 0 0 1-86.434909 25.437091l8.843636 45.684364a560.290909 560.290909 0 0 0 77.451637-20.712728v18.897455a342.853818 342.853818 0 0 1-119.528728 41.751273l7.563637 45.917091a465.873455 465.873455 0 0 0 111.709091-33.582546l-0.209455 76.032a22.900364 22.900364 0 0 1-21.131636 24.808727c-0.930909 0.186182-91.764364 19.106909-131.770182 22.17891a32.581818 32.581818 0 0 1-22.318545-3.49091 40.308364 40.308364 0 0 1-6.539637-27.927272C214.109091 550.027636 239.709091 382.836364 366.871273 291.514182z m227.258182 139.938909l0.442181 152.901818a67.979636 67.979636 0 0 0 58.181819 72.145454c3.863273 0.814545 94.72 19.758545 137.774545 23.04 3.421091 0.279273 6.679273 0.395636 9.867636 0.395637a67.234909 67.234909 0 0 0 47.220364-15.802182 83.037091 83.037091 0 0 0 21.829818-61.393455c1.28-58.181818-27.787636-247.831273-173.125818-350.487272l-3.514182-2.071273a84.526545 84.526545 0 0 0-71.377454-1.652364 60.509091 60.509091 0 0 0-27.601455 52.666182l0.232727 78.871273a24.971636 24.971636 0 0 1-12.241454-20.573091V139.636364h-46.545455v219.880727a78.359273 78.359273 0 0 0 58.856728 71.936z m50.804363-142.894546a13.172364 13.172364 0 0 1 6.562909-1.326545 58.903273 58.903273 0 0 1 19.805091 4.282182c127.208727 91.322182 152.692364 258.490182 151.552 310.132363a40.261818 40.261818 0 0 1-6.539636 27.927273 32.418909 32.418909 0 0 1-22.295273 3.490909c-40.029091-3.072-130.862545-21.992727-133.841454-22.528a22.411636 22.411636 0 0 1-19.060364-25.390545l-0.209455-69.818182a489.984 489.984 0 0 0 100.072728 28.276363l7.540363-45.917091a395.496727 395.496727 0 0 1-107.822545-34.094545v-23.970909a508.136727 508.136727 0 0 0 65.536 18.106182l9.309091-45.591273a394.728727 394.728727 0 0 1-74.984728-22.784L640.256 302.545455a19.037091 19.037091 0 0 1 4.677818-13.963637zM93.090909 0v1024h837.818182V0H93.090909z m791.272727 46.545455v744.727272H139.636364V46.545455h744.727272zM139.636364 977.454545v-139.636363h744.727272v139.636363H139.636364z m69.818181-46.545454h139.636364v-46.545455H209.454545v46.545455z m162.909091 0h162.909091v-46.545455h-162.909091v46.545455z m209.454546-46.545455v46.545455h256v-46.545455H581.818182z" p-id="6359" fill="#ffffff"></path></svg>