<?xml version="1.0" standalone="no"?><!DOCTYPE svg PUBLIC "-//W3C//DTD SVG 1.1//EN" "http://www.w3.org/Graphics/SVG/1.1/DTD/svg11.dtd"><svg t="1704181863320" class="icon" viewBox="0 0 1024 1024" version="1.1" xmlns="http://www.w3.org/2000/svg" p-id="7927" width="19" height="19" xmlns:xlink="http://www.w3.org/1999/xlink"><path d="M214.300444 917.048889h589.368889V173.738667L704.284444 172.942222c-11.719111 18.261333-21.959111 27.704889-30.833777 28.273778-32.768 0.568889-317.44 0.625778-328.817778 0-7.566222-0.398222-15.189333-9.557333-22.812445-27.477333h-107.52V917.048889z" fill="#ffffff" opacity=".697" p-id="7928"></path><path d="M875.008 1013.76H144.896a25.372444 25.372444 0 0 1-25.6-25.6V96.256c0-14.336 11.264-25.6 25.6-25.6h211.968c14.336 0 25.6 11.264 25.6 25.6s-11.264 25.6-25.6 25.6H170.496V962.56h678.912V121.856h-178.176a25.372444 25.372444 0 0 1-25.6-25.6c0-14.336 11.264-25.6 25.6-25.6h203.776c14.336 0 25.6 11.264 25.6 25.6V988.16c0 14.336-11.264 25.6-25.6 25.6z" fill="#ffffff" p-id="7929"></path><path d="M658.432 187.904h-296.96a25.372444 25.372444 0 0 1-25.6-25.6V35.84c0-14.336 11.264-25.6 25.6-25.6h296.96c14.336 0 25.6 11.264 25.6 25.6v126.464c0 14.336-11.264 25.6-25.6 25.6z m-271.36-51.2h245.76V61.44h-245.76v75.264z m235.52 287.744H405.504a25.372444 25.372444 0 0 1-25.6-25.6c0-14.336 11.264-25.6 25.6-25.6h217.088c14.336 0 25.6 11.264 25.6 25.6s-11.264 25.6-25.6 25.6z" fill="#ffffff" p-id="7930"></path><path d="M514.048 532.992a25.372444 25.372444 0 0 1-25.6-25.6V290.304c0-14.336 11.264-25.6 25.6-25.6s25.6 11.264 25.6 25.6v217.088c0 14.336-11.264 25.6-25.6 25.6z m232.96 150.016H278.016a25.372444 25.372444 0 0 1-25.6-25.6c0-14.336 11.264-25.6 25.6-25.6h468.992c14.336 0 25.6 11.264 25.6 25.6s-11.264 25.6-25.6 25.6z m0 136.704H278.016a25.372444 25.372444 0 0 1-25.6-25.6c0-14.336 11.264-25.6 25.6-25.6h468.992c14.336 0 25.6 11.264 25.6 25.6s-11.264 25.6-25.6 25.6z" fill="#ffffff" p-id="7931"></path></svg>